<mxfile host="app.diagrams.net" modified="2024-05-24T03:42:10.173Z" agent="Mozilla/5.0 (Windows NT 10.0; Win64; x64) AppleWebKit/537.36 (KHTML, like Gecko) Chrome/125.0.0.0 Safari/537.36 Edg/125.0.0.0" etag="1CyE-JZWofabyjk2st6u" version="24.4.4" type="device">
  <diagram name="Page-1" id="2YBvvXClWsGukQMizWep">
    <mxGraphModel dx="906" dy="652" grid="1" gridSize="10" guides="1" tooltips="1" connect="1" arrows="1" fold="1" page="1" pageScale="1" pageWidth="827" pageHeight="1169" math="0" shadow="0">
      <root>
        <mxCell id="0" />
        <mxCell id="1" parent="0" />
        <mxCell id="aM9ryv3xv72pqoxQDRHE-1" value=": AuthenticationController" style="shape=umlLifeline;perimeter=lifelinePerimeter;whiteSpace=wrap;html=1;container=0;dropTarget=0;collapsible=0;recursiveResize=0;outlineConnect=0;portConstraint=eastwest;newEdgeStyle={&quot;edgeStyle&quot;:&quot;elbowEdgeStyle&quot;,&quot;elbow&quot;:&quot;vertical&quot;,&quot;curved&quot;:0,&quot;rounded&quot;:0};" parent="1" vertex="1">
          <mxGeometry x="250" y="50" width="140" height="410" as="geometry" />
        </mxCell>
        <mxCell id="aM9ryv3xv72pqoxQDRHE-2" value="" style="html=1;points=[];perimeter=orthogonalPerimeter;outlineConnect=0;targetShapes=umlLifeline;portConstraint=eastwest;newEdgeStyle={&quot;edgeStyle&quot;:&quot;elbowEdgeStyle&quot;,&quot;elbow&quot;:&quot;vertical&quot;,&quot;curved&quot;:0,&quot;rounded&quot;:0};" parent="aM9ryv3xv72pqoxQDRHE-1" vertex="1">
          <mxGeometry x="70" y="70" width="5" height="330" as="geometry" />
        </mxCell>
        <mxCell id="aM9ryv3xv72pqoxQDRHE-5" value=": AuthenticationService" style="shape=umlLifeline;perimeter=lifelinePerimeter;whiteSpace=wrap;html=1;container=0;dropTarget=0;collapsible=0;recursiveResize=0;outlineConnect=0;portConstraint=eastwest;newEdgeStyle={&quot;edgeStyle&quot;:&quot;elbowEdgeStyle&quot;,&quot;elbow&quot;:&quot;vertical&quot;,&quot;curved&quot;:0,&quot;rounded&quot;:0};" parent="1" vertex="1">
          <mxGeometry x="440" y="50" width="130" height="400" as="geometry" />
        </mxCell>
        <mxCell id="aM9ryv3xv72pqoxQDRHE-6" value="" style="html=1;points=[];perimeter=orthogonalPerimeter;outlineConnect=0;targetShapes=umlLifeline;portConstraint=eastwest;newEdgeStyle={&quot;edgeStyle&quot;:&quot;elbowEdgeStyle&quot;,&quot;elbow&quot;:&quot;vertical&quot;,&quot;curved&quot;:0,&quot;rounded&quot;:0};" parent="aM9ryv3xv72pqoxQDRHE-5" vertex="1">
          <mxGeometry x="60" y="75" width="10" height="305" as="geometry" />
        </mxCell>
        <mxCell id="A7nqvFEFAUi0H4_SwFc1-15" value="" style="html=1;verticalAlign=bottom;labelBackgroundColor=none;endArrow=block;endFill=1;rounded=0;" parent="aM9ryv3xv72pqoxQDRHE-5" source="aM9ryv3xv72pqoxQDRHE-6" target="aM9ryv3xv72pqoxQDRHE-5" edge="1">
          <mxGeometry width="160" relative="1" as="geometry">
            <mxPoint x="90" y="330" as="sourcePoint" />
            <mxPoint x="250" y="330" as="targetPoint" />
            <Array as="points">
              <mxPoint x="170" y="330" />
              <mxPoint x="170" y="350" />
            </Array>
          </mxGeometry>
        </mxCell>
        <mxCell id="aM9ryv3xv72pqoxQDRHE-7" value="ValidateAndCreateToken(userDTO)" style="html=1;verticalAlign=bottom;endArrow=block;edgeStyle=elbowEdgeStyle;elbow=vertical;curved=0;rounded=0;" parent="1" target="aM9ryv3xv72pqoxQDRHE-6" edge="1">
          <mxGeometry x="-0.0013" relative="1" as="geometry">
            <mxPoint x="325" y="140" as="sourcePoint" />
            <Array as="points">
              <mxPoint x="370" y="140" />
            </Array>
            <mxPoint x="489.5000000000002" y="140" as="targetPoint" />
            <mxPoint as="offset" />
          </mxGeometry>
        </mxCell>
        <mxCell id="AW9qZRYgZf-F4qoxSW6H-1" value="User" style="shape=umlActor;verticalLabelPosition=bottom;verticalAlign=top;html=1;" parent="1" vertex="1">
          <mxGeometry x="120" y="50" width="30" height="60" as="geometry" />
        </mxCell>
        <mxCell id="AW9qZRYgZf-F4qoxSW6H-3" value=": UserManager" style="shape=umlLifeline;perimeter=lifelinePerimeter;whiteSpace=wrap;html=1;container=0;dropTarget=0;collapsible=0;recursiveResize=0;outlineConnect=0;portConstraint=eastwest;newEdgeStyle={&quot;edgeStyle&quot;:&quot;elbowEdgeStyle&quot;,&quot;elbow&quot;:&quot;vertical&quot;,&quot;curved&quot;:0,&quot;rounded&quot;:0};" parent="1" vertex="1">
          <mxGeometry x="630" y="50" width="110" height="300" as="geometry" />
        </mxCell>
        <mxCell id="AW9qZRYgZf-F4qoxSW6H-4" value="" style="html=1;points=[];perimeter=orthogonalPerimeter;outlineConnect=0;targetShapes=umlLifeline;portConstraint=eastwest;newEdgeStyle={&quot;edgeStyle&quot;:&quot;elbowEdgeStyle&quot;,&quot;elbow&quot;:&quot;vertical&quot;,&quot;curved&quot;:0,&quot;rounded&quot;:0};" parent="AW9qZRYgZf-F4qoxSW6H-3" vertex="1">
          <mxGeometry x="50" y="75" width="10" height="195" as="geometry" />
        </mxCell>
        <mxCell id="AW9qZRYgZf-F4qoxSW6H-5" value="FindByNameAsync(userDTO.email)" style="html=1;verticalAlign=bottom;endArrow=openThin;curved=0;rounded=0;endFill=0;targetPerimeterSpacing=0;endSize=6;" parent="1" source="aM9ryv3xv72pqoxQDRHE-6" target="AW9qZRYgZf-F4qoxSW6H-4" edge="1">
          <mxGeometry x="0.0033" width="80" relative="1" as="geometry">
            <mxPoint x="470" y="160" as="sourcePoint" />
            <mxPoint x="670" y="160" as="targetPoint" />
            <Array as="points">
              <mxPoint x="560" y="160" />
            </Array>
            <mxPoint as="offset" />
          </mxGeometry>
        </mxCell>
        <mxCell id="AW9qZRYgZf-F4qoxSW6H-8" value="&lt;div&gt;&amp;lt;&amp;lt;entity store&amp;gt;&amp;gt;&lt;/div&gt;: Store" style="shape=umlLifeline;perimeter=lifelinePerimeter;whiteSpace=wrap;html=1;container=0;dropTarget=0;collapsible=0;recursiveResize=0;outlineConnect=0;portConstraint=eastwest;newEdgeStyle={&quot;edgeStyle&quot;:&quot;elbowEdgeStyle&quot;,&quot;elbow&quot;:&quot;vertical&quot;,&quot;curved&quot;:0,&quot;rounded&quot;:0};" parent="1" vertex="1">
          <mxGeometry x="890" y="50" width="90" height="300" as="geometry" />
        </mxCell>
        <mxCell id="AW9qZRYgZf-F4qoxSW6H-9" value="" style="html=1;points=[];perimeter=orthogonalPerimeter;outlineConnect=0;targetShapes=umlLifeline;portConstraint=eastwest;newEdgeStyle={&quot;edgeStyle&quot;:&quot;elbowEdgeStyle&quot;,&quot;elbow&quot;:&quot;vertical&quot;,&quot;curved&quot;:0,&quot;rounded&quot;:0};" parent="AW9qZRYgZf-F4qoxSW6H-8" vertex="1">
          <mxGeometry x="40" y="110" width="10" height="50" as="geometry" />
        </mxCell>
        <mxCell id="AW9qZRYgZf-F4qoxSW6H-13" value="FindByNameAsync(user.email,CancellationToken)" style="html=1;verticalAlign=bottom;endArrow=openThin;curved=0;rounded=0;endFill=0;" parent="1" source="AW9qZRYgZf-F4qoxSW6H-4" edge="1">
          <mxGeometry width="80" relative="1" as="geometry">
            <mxPoint x="710" y="180" as="sourcePoint" />
            <mxPoint x="930" y="180" as="targetPoint" />
            <Array as="points">
              <mxPoint x="750" y="180" />
            </Array>
          </mxGeometry>
        </mxCell>
        <mxCell id="A7nqvFEFAUi0H4_SwFc1-2" value="User" style="html=1;verticalAlign=bottom;endArrow=open;dashed=1;endSize=8;edgeStyle=elbowEdgeStyle;elbow=horizontal;curved=0;rounded=0;" parent="1" source="AW9qZRYgZf-F4qoxSW6H-9" target="AW9qZRYgZf-F4qoxSW6H-3" edge="1">
          <mxGeometry relative="1" as="geometry">
            <mxPoint x="730" y="199.58" as="targetPoint" />
            <Array as="points">
              <mxPoint x="790" y="199.58" />
            </Array>
            <mxPoint x="865" y="199.58" as="sourcePoint" />
          </mxGeometry>
        </mxCell>
        <mxCell id="A7nqvFEFAUi0H4_SwFc1-3" value="User" style="html=1;verticalAlign=bottom;endArrow=open;dashed=1;endSize=8;edgeStyle=elbowEdgeStyle;elbow=horizontal;curved=0;rounded=0;" parent="1" source="AW9qZRYgZf-F4qoxSW6H-4" target="aM9ryv3xv72pqoxQDRHE-5" edge="1">
          <mxGeometry relative="1" as="geometry">
            <mxPoint x="520" y="219.99999999999997" as="targetPoint" />
            <Array as="points">
              <mxPoint x="625" y="219.58" />
            </Array>
            <mxPoint x="650" y="219.99999999999997" as="sourcePoint" />
          </mxGeometry>
        </mxCell>
        <mxCell id="A7nqvFEFAUi0H4_SwFc1-5" value=": SignInManager" style="shape=umlLifeline;perimeter=lifelinePerimeter;whiteSpace=wrap;html=1;container=0;dropTarget=0;collapsible=0;recursiveResize=0;outlineConnect=0;portConstraint=eastwest;newEdgeStyle={&quot;edgeStyle&quot;:&quot;elbowEdgeStyle&quot;,&quot;elbow&quot;:&quot;vertical&quot;,&quot;curved&quot;:0,&quot;rounded&quot;:0};" parent="1" vertex="1">
          <mxGeometry x="1000" y="50" width="110" height="300" as="geometry" />
        </mxCell>
        <mxCell id="A7nqvFEFAUi0H4_SwFc1-6" value="" style="html=1;points=[];perimeter=orthogonalPerimeter;outlineConnect=0;targetShapes=umlLifeline;portConstraint=eastwest;newEdgeStyle={&quot;edgeStyle&quot;:&quot;elbowEdgeStyle&quot;,&quot;elbow&quot;:&quot;vertical&quot;,&quot;curved&quot;:0,&quot;rounded&quot;:0};" parent="A7nqvFEFAUi0H4_SwFc1-5" vertex="1">
          <mxGeometry x="50" y="180" width="10" height="110" as="geometry" />
        </mxCell>
        <mxCell id="A7nqvFEFAUi0H4_SwFc1-7" value="PasswordSignInAsync(user,userDTO.password,isPersistent,lockoutOnFailure)" style="html=1;verticalAlign=bottom;endArrow=openThin;curved=0;rounded=0;endFill=0;" parent="1" source="aM9ryv3xv72pqoxQDRHE-5" target="A7nqvFEFAUi0H4_SwFc1-5" edge="1">
          <mxGeometry x="0.0033" width="80" relative="1" as="geometry">
            <mxPoint x="530" y="260" as="sourcePoint" />
            <mxPoint x="685" y="260" as="targetPoint" />
            <Array as="points">
              <mxPoint x="580" y="260" />
            </Array>
            <mxPoint as="offset" />
          </mxGeometry>
        </mxCell>
        <mxCell id="A7nqvFEFAUi0H4_SwFc1-9" value="CheckPasswordSignIn(user,userDTO.password,lockoutOnFailure)" style="html=1;verticalAlign=bottom;endArrow=openThin;curved=0;rounded=0;strokeColor=default;endFill=0;" parent="1" source="A7nqvFEFAUi0H4_SwFc1-6" target="AW9qZRYgZf-F4qoxSW6H-3" edge="1">
          <mxGeometry x="0.0033" width="80" relative="1" as="geometry">
            <mxPoint x="1040" y="280" as="sourcePoint" />
            <mxPoint x="690" y="280" as="targetPoint" />
            <Array as="points">
              <mxPoint x="705" y="280" />
            </Array>
            <mxPoint as="offset" />
          </mxGeometry>
        </mxCell>
        <mxCell id="A7nqvFEFAUi0H4_SwFc1-12" value="Result" style="html=1;verticalAlign=bottom;endArrow=open;dashed=1;endSize=8;edgeStyle=elbowEdgeStyle;elbow=horizontal;curved=0;rounded=0;" parent="1" source="AW9qZRYgZf-F4qoxSW6H-4" target="A7nqvFEFAUi0H4_SwFc1-5" edge="1">
          <mxGeometry relative="1" as="geometry">
            <mxPoint x="905" y="310" as="targetPoint" />
            <Array as="points">
              <mxPoint x="830" y="310" />
            </Array>
            <mxPoint x="770" y="310" as="sourcePoint" />
          </mxGeometry>
        </mxCell>
        <mxCell id="A7nqvFEFAUi0H4_SwFc1-13" value="Result" style="html=1;verticalAlign=bottom;endArrow=open;dashed=1;endSize=8;edgeStyle=elbowEdgeStyle;elbow=horizontal;curved=0;rounded=0;" parent="1" source="A7nqvFEFAUi0H4_SwFc1-6" target="aM9ryv3xv72pqoxQDRHE-6" edge="1">
          <mxGeometry relative="1" as="geometry">
            <mxPoint x="890" y="330" as="targetPoint" />
            <Array as="points">
              <mxPoint x="950" y="330" />
            </Array>
            <mxPoint x="1025" y="330" as="sourcePoint" />
          </mxGeometry>
        </mxCell>
        <mxCell id="A7nqvFEFAUi0H4_SwFc1-16" value="&lt;span style=&quot;color: rgb(0, 0, 0); font-family: Helvetica; font-size: 11px; font-style: normal; font-variant-ligatures: normal; font-variant-caps: normal; font-weight: 400; letter-spacing: normal; orphans: 2; text-align: center; text-indent: 0px; text-transform: none; widows: 2; word-spacing: 0px; -webkit-text-stroke-width: 0px; white-space: nowrap; background-color: rgb(255, 255, 255); text-decoration-thickness: initial; text-decoration-style: initial; text-decoration-color: initial; display: inline !important; float: none;&quot;&gt;CreateToken(userDTO)&lt;/span&gt;" style="text;whiteSpace=wrap;html=1;" parent="1" vertex="1">
          <mxGeometry x="610" y="380" width="150" height="40" as="geometry" />
        </mxCell>
        <mxCell id="A7nqvFEFAUi0H4_SwFc1-18" value="Token" style="html=1;verticalAlign=bottom;endArrow=open;dashed=1;endSize=8;edgeStyle=elbowEdgeStyle;elbow=horizontal;curved=0;rounded=0;" parent="1" source="aM9ryv3xv72pqoxQDRHE-6" target="aM9ryv3xv72pqoxQDRHE-2" edge="1">
          <mxGeometry relative="1" as="geometry">
            <mxPoint x="340" y="420" as="targetPoint" />
            <Array as="points">
              <mxPoint x="400" y="420" />
            </Array>
            <mxPoint x="475" y="420" as="sourcePoint" />
          </mxGeometry>
        </mxCell>
        <mxCell id="BuuCrf6mGVNdOPJ4ZnFj-1" value="" style="html=1;points=[];perimeter=orthogonalPerimeter;outlineConnect=0;targetShapes=umlLifeline;portConstraint=eastwest;newEdgeStyle={&quot;edgeStyle&quot;:&quot;elbowEdgeStyle&quot;,&quot;elbow&quot;:&quot;vertical&quot;,&quot;curved&quot;:0,&quot;rounded&quot;:0};" vertex="1" parent="1">
          <mxGeometry x="152.5" y="110" width="5" height="350" as="geometry" />
        </mxCell>
        <mxCell id="aM9ryv3xv72pqoxQDRHE-3" value="Login" style="html=1;verticalAlign=bottom;startArrow=oval;endArrow=block;startSize=8;edgeStyle=elbowEdgeStyle;elbow=vertical;curved=0;rounded=0;exitX=1.5;exitY=0.032;exitDx=0;exitDy=0;exitPerimeter=0;" parent="1" target="aM9ryv3xv72pqoxQDRHE-2" edge="1" source="BuuCrf6mGVNdOPJ4ZnFj-1">
          <mxGeometry relative="1" as="geometry">
            <mxPoint x="170" y="120" as="sourcePoint" />
            <Array as="points">
              <mxPoint x="210" y="120" />
            </Array>
          </mxGeometry>
        </mxCell>
        <mxCell id="BuuCrf6mGVNdOPJ4ZnFj-6" value="OkObject(TokenDTO)" style="html=1;verticalAlign=bottom;endArrow=open;dashed=1;endSize=8;edgeStyle=elbowEdgeStyle;elbow=horizontal;curved=0;rounded=0;" edge="1" parent="1" source="aM9ryv3xv72pqoxQDRHE-1" target="BuuCrf6mGVNdOPJ4ZnFj-1">
          <mxGeometry relative="1" as="geometry">
            <mxPoint x="170" y="440" as="targetPoint" />
            <Array as="points">
              <mxPoint x="245" y="440" />
            </Array>
            <mxPoint x="297.5" y="440" as="sourcePoint" />
          </mxGeometry>
        </mxCell>
      </root>
    </mxGraphModel>
  </diagram>
</mxfile>
